<svg id="b42921ae-afcb-4d1a-8b3a-a4af94eb240a" data-name="a43e281f-bf5e-4334-86f5-da538c92eb10" xmlns="http://www.w3.org/2000/svg" viewBox="0 0 58.56814 84.69605">
  <defs>
    <style>
      .b7080f88-d7a9-413a-8fb2-d10ca9483f74 {
        fill: #fff;
      }
    </style>
  </defs>
  <title>logo-pucpr-branca-escolas</title>
  <g>
    <g>
      <path class="b7080f88-d7a9-413a-8fb2-d10ca9483f74" d="M5.85909,73.46382V63.34487H9.659a3.46518,3.46518,0,1,1,0,6.91017H8.46277v3.20879Zm2.60366-5.6295h1.154a1.01432,1.01432,0,0,0,1.1118-1.0273,1.02471,1.02471,0,0,0-1.1118-1.04149h-1.154Z" transform="translate(-0.00002 0.00001)"/>
      <path class="b7080f88-d7a9-413a-8fb2-d10ca9483f74" d="M14.28928,68.84764V63.34487H16.907v5.50277a2.15014,2.15014,0,1,0,4.29243,0V63.34487h2.60366v5.50277a4.61608,4.61608,0,0,1-4.49973,4.72954h0q-.12858.0032-.25717-.00076A4.6243,4.6243,0,0,1,14.29,69.08794Q14.2865,68.96781,14.28928,68.84764Z" transform="translate(-0.00002 0.00001)"/>
      <path class="b7080f88-d7a9-413a-8fb2-d10ca9483f74" d="M24.87277,68.39729a5.12684,5.12684,0,0,1,5.08487-5.16848h0q.11749-.001.235.00346a4.81189,4.81189,0,0,1,4.95393,4.16583H32.54291a2.39076,2.39076,0,0,0-2.35033-1.717,2.726,2.726,0,0,0,0,5.44654,2.3341,2.3341,0,0,0,2.33628-1.717h2.63175a4.81184,4.81184,0,0,1-4.968,4.16583,5.13811,5.13811,0,0,1-5.31679-4.953v0Q24.87184,68.51042,24.87277,68.39729Z" transform="translate(-0.00002 0.00001)"/>
      <path class="b7080f88-d7a9-413a-8fb2-d10ca9483f74" d="M36.42729,73.46382V63.34487h3.79989a3.46518,3.46518,0,1,1,0,6.91017H39.031v3.20879Zm2.60366-5.6295h1.154a1.01423,1.01423,0,0,0,1.1118-1.0273,1.02471,1.02471,0,0,0-1.1118-1.04149H39.031Z" transform="translate(-0.00002 0.00001)"/>
      <path class="b7080f88-d7a9-413a-8fb2-d10ca9483f74" d="M45.125,73.46382V63.34487h3.74358a3.51107,3.51107,0,0,1,3.71123,3.2988q.00274.04644.00424.09293a3.21953,3.21953,0,0,1-1.75919,2.857l1.88586,3.87025H49.88185L48.376,70.08626h-.6615v3.37766Zm2.58954-5.545h1.02735a1.13167,1.13167,0,1,0-.014-2.25179H47.71448Z" transform="translate(-0.00002 0.00001)"/>
    </g>
    <g>
      <path class="b7080f88-d7a9-413a-8fb2-d10ca9483f74" d="M12.06769,48.3179l.22.42183a.4394.4394,0,0,0-.22031.64631.4155.4155,0,0,0,.60681.20438c.56926-.29689-.02393-1.51392.8279-1.95825a.81319.81319,0,0,1,1.135.40813.84978.84978,0,0,1-.38611,1.21727l-.22-.42183a.40386.40386,0,0,0,.21094-.58412.3676.3676,0,0,0-.52806-.19339c-.56111.29268.067,1.49668-.82169,1.96028a.94533.94533,0,0,1-.82451-1.70058Z" transform="translate(-0.00002 0.00001)"/>
      <path class="b7080f88-d7a9-413a-8fb2-d10ca9483f74" d="M13.26454,50.40766l1.09757-.75119a.89245.89245,0,0,1,1.36169.19868.90869.90869,0,0,1-.277,1.35369l-.26073-.3812c.29686-.2368.344-.47045.16929-.72586-.1539-.22489-.40432-.27184-.72459-.05273l-1.09771.75117c-.31628.21658-.36325.4669-.20408.69941.17727.2592.41614.29728.73925.1153l.26083.38118A.91521.91521,0,0,1,12.96313,51.75a.89393.89393,0,0,1,.30143-1.34237Z" transform="translate(-0.00002 0.00001)"/>
      <path class="b7080f88-d7a9-413a-8fb2-d10ca9483f74" d="M16.76933,51.30651l-2.47022,2.08616-.301-.35638,2.4701-2.0861Z" transform="translate(-0.00002 0.00001)"/>
      <path class="b7080f88-d7a9-413a-8fb2-d10ca9483f74" d="M16.35547,54.86287l-.30409.31614-1.17465-1.13058,2.242-2.32918,1.14112,1.09849-.30408.31609-.80535-.77508-.65011.67551.74194.71422-.29779.30948-.742-.7142-.68534.712Z" transform="translate(-0.00002 0.00001)"/>
      <path class="b7080f88-d7a9-413a-8fb2-d10ca9483f74" d="M20.11685,54.16581l-1.85591,2.648-.382-.26776.31918-1.71109c.05847-.25242.14232-.60542.19739-.82077l-.01666-.00038c-.15912.28332-.41869.69382-.59357.94348l-.71579,1.02134-.37839-.2651,1.856-2.648.382.2678-.33754,1.77739c-.04513.23349-.119.54832-.16607.75219l.01657.0004c.15271-.28223.40835-.69527.57281-.92983l.724-1.03273Z" transform="translate(-0.00002 0.00001)"/>
      <path class="b7080f88-d7a9-413a-8fb2-d10ca9483f74" d="M21.75842,55.49867l-.6031-.30173-1.2482,2.49463-.42554-.21285,1.24835-2.49463-.59892-.29964.19852-.39656,1.62726.81433Z" transform="translate(-0.00002 0.00001)"/>
      <path class="b7080f88-d7a9-413a-8fb2-d10ca9483f74" d="M22.66175,55.3546l-1.17124,3.01407-.43483-.169,1.171-3.014Z" transform="translate(-0.00002 0.00001)"/>
      <path class="b7080f88-d7a9-413a-8fb2-d10ca9483f74" d="M23.62438,58.36388l-.82224-.23332-.32007.58629-.471-.13374,1.66521-2.889.48439.13752-.10088,3.333-.46653-.13249Zm.02518-.44419.04164-.891c.01358-.2171.04917-.52868.07364-.6994l-.01338-.00382c-.06883.15813-.19777.44319-.30472.63375l-.4282.78134Z" transform="translate(-0.00002 0.00001)"/>
      <path class="b7080f88-d7a9-413a-8fb2-d10ca9483f74" d="M25.00856,58.87556l-.472,1.00709-.27167-.0549.30919-1.04Z" transform="translate(-0.00002 0.00001)"/>
      <path class="b7080f88-d7a9-413a-8fb2-d10ca9483f74" d="M26.59672,56.33985l.48768.04289.23045,1.81013c.03938.29091.0626.60826.08582.87l.0184.0016c.06871-.25358.15134-.56168.23643-.84174l.54711-1.74169.4831.04235-1.07446,3.15144-.50607-.04438Z" transform="translate(-0.00002 0.00001)"/>
      <path class="b7080f88-d7a9-413a-8fb2-d10ca9483f74" d="M29.42405,56.52092l-.019,3.23274-.46635-.00281.019-3.23274Z" transform="translate(-0.00002 0.00001)"/>
      <path class="b7080f88-d7a9-413a-8fb2-d10ca9483f74" d="M31.63208,56.92109l-.674.02441.1009,2.7884-.47556.01714-.1008-2.78842-.66947.02422-.016-.44324,1.819-.0658Z" transform="translate(-0.00002 0.00001)"/>
      <path class="b7080f88-d7a9-413a-8fb2-d10ca9483f74" d="M33.2644,58.87913l-.84808.10443-.06707.66451-.48593.05978.41169-3.30853.49975-.06153,1.202,3.10985-.48148.05924Zm-.1493-.419-.30786-.83708c-.07165-.20526-.16-.50624-.20375-.673l-.01382.00171c-.002.17243-.01019.48521-.03454.70229l-.09108.88618Z" transform="translate(-0.00002 0.00001)"/>
      <path class="b7080f88-d7a9-413a-8fb2-d10ca9483f74" d="M37.11312,58.171l.12829.41947-1.55906.4766-.945-3.0915,1.51481-.463.12828.41953-1.06874.32676.274.89656.98486-.30111.12555.41072-.98486.301.28893.94515Z" transform="translate(-0.00002 0.00001)"/>
      <path class="b7080f88-d7a9-413a-8fb2-d10ca9483f74" d="M38.24378,55.10535l-.613.2812,1.1633,2.53591-.4325.19833-1.16329-2.53591-.60873.27928-.185-.403,1.65428-.7588Z" transform="translate(-0.00002 0.00001)"/>
      <path class="b7080f88-d7a9-413a-8fb2-d10ca9483f74" d="M39.692,54.15274l.57873.77271L41.051,54.341l.25487.34015-.78011.58439.84191,1.12384-.3732.27977-1.93887-2.58771,1.21994-.914.26316.35118Z" transform="translate(-0.00002 0.00001)"/>
      <path class="b7080f88-d7a9-413a-8fb2-d10ca9483f74" d="M40.84126,52.61251l2.21407,2.35559-.33978.31948-2.21418-2.3555Z" transform="translate(-0.00002 0.00001)"/>
      <path class="b7080f88-d7a9-413a-8fb2-d10ca9483f74" d="M41.22161,52.26126l.51533-.61679a.91637.91637,0,0,1,1.41251-.12007l.92881.77593a.92.92,0,0,1,.143,1.41376l-.51826.62039ZM43.881,53.42983a.49813.49813,0,0,0-.112-.77381l-.9145-.7641a.49091.49091,0,0,0-.77429.03334l-.219.26233L43.662,53.69211Z" transform="translate(-0.00002 0.00001)"/>
      <path class="b7080f88-d7a9-413a-8fb2-d10ca9483f74" d="M45.83425,50.625l.373.23106-.85852,1.386-2.7486-1.70257.83419-1.34675.37309.23106-.58856.95019.79709.49371.54232-.87555.36516.22616-.54243.87562.84028.52058Z" transform="translate(-0.00002 0.00001)"/>
      <path class="b7080f88-d7a9-413a-8fb2-d10ca9483f74" d="M45.66856,49.99214l.20095-.43117a.43913.43913,0,0,0,.64684-.21823.41536.41536,0,0,0-.20676-.60588c-.5818-.27118-1.18678.93976-2.05763.534a.813.813,0,0,1-.36634-1.149.84965.84965,0,0,1,1.20081-.434l-.20092.43122a.404.404,0,0,0-.59192.18779.36757.36757,0,0,0,.16774.53671c.57351.26722,1.147-.96346,2.05533-.5401a.94518.94518,0,0,1-.8481,1.68859Z" transform="translate(-0.00002 0.00001)"/>
    </g>
    <g>
      <g>
        <path class="b7080f88-d7a9-413a-8fb2-d10ca9483f74" d="M9.31213,81.1704l.0309.4283c.013.13083.01791.21935.01791.2651l-.07945.01467a1.638,1.638,0,0,0-.4689-.64293,1.10819,1.10819,0,0,0-.6874-.21373,1.97756,1.97756,0,0,0-.77225.12177,1.58779,1.58779,0,0,0-.68545.59586,1.8122,1.8122,0,0,0-.28564,1.02678,1.7488,1.7488,0,0,0,.10426.623,1.91406,1.91406,0,0,0,.29557.51556,1.98078,1.98078,0,0,0,.44882.41232,1.24979,1.24979,0,0,0,.40483.17531,1.77706,1.77706,0,0,0,.39444.03192,1.54188,1.54188,0,0,0,.37587-.04921.76.76,0,0,0,.30764-.12866.40012.40012,0,0,0,.14379-.18265A1.36746,1.36746,0,0,0,8.8946,83.77a1.32283,1.32283,0,0,0-.06477-.56735c-.0436-.05661-.1796-.08852-.40845-.1067l-.11248-.00817L8.23311,83.09l-.0462-.0065-.0436-.07251a.10383.10383,0,0,1,.021-.03633,5.32715,5.32715,0,0,1,.63814-.02285c.07278,0,.1915.003.35841.00472l.28863.01338.2636-.00217c.05094,0,.111.00217.1831.00518.01465.00174.02047.0039.02414.00866a.03669.03669,0,0,1,.00583.02375.33636.33636,0,0,1-.01228.08074.93506.93506,0,0,1-.1846.025l-.1829-.003a.18717.18717,0,0,0-.14958.06437.42145.42145,0,0,0-.02874.212l.00173.3709a2.18519,2.18519,0,0,1-.02892.48313.23139.23139,0,0,1-.07145.111.82891.82891,0,0,1-.22432.1183,2.15217,2.15217,0,0,1-.446.13128,4.085,4.085,0,0,1-.71893.06474,2.50917,2.50917,0,0,1-.91668-.1419,1.809,1.809,0,0,1-.61356-.39421,1.65019,1.65019,0,0,1-.36764-.51471,1.89129,1.89129,0,0,1-.16558-.77592,1.99385,1.99385,0,0,1,.25971-.96675,1.91727,1.91727,0,0,1,.842-.76814A2.49528,2.49528,0,0,1,8.02985,80.897a3.02418,3.02418,0,0,1,.79187.08206,1.96777,1.96777,0,0,1,.49048.19127m.85126,3.3368a3.90417,3.90417,0,0,0,.4633-.06817.13735.13735,0,0,0,.0665-.0825v-.03278c0-.04621.00884-.21631.0244-.50865.00323-.08248.00473-.16581.00473-.24266l-.00884-.33722.00623-.37866-.00212-.7073.00212-.5073a.84488.84488,0,0,0-.04943-.39032.40434.40434,0,0,0-.2679-.10148,1.40286,1.40286,0,0,1-.242-.044.04871.04871,0,0,1-.02291-.044.19638.19638,0,0,1,.00995-.05271.21776.21776,0,0,1,.13039-.0263c.00867,0,.03392-.00389.07689-.00778a1.05044,1.05044,0,0,1,.11827-.00695h.23147l.74307-.00773a2.9222,2.9222,0,0,1,.88194.09152.81757.81757,0,0,1,.39917.31521.85827.85827,0,0,1-.3925,1.28412,1.68905,1.68905,0,0,0-.14572.08722,4.92042,4.92042,0,0,0,.26555.4879l.35878.61357a3.24872,3.24872,0,0,0,.29558.42575.69292.69292,0,0,0,.19927.14288,1.89928,1.89928,0,0,0,.39448.10793c.00084.01773.00084.03285.00084.044,0,.01257,0,.02592-.00084.04147-.25821.00473-.55985.00473-.90719.00473a.8713.8713,0,0,1-.10126-.00473c-.13427-.25559-.28933-.53582-.47106-.845l-.41778-.76123a.53266.53266,0,0,0-.13773-.1494.34788.34788,0,0,0-.14657-.02891l-.23814.003-.08052-.003c-.00411.05955-.008.1822-.008.36915v.9642a.4943.4943,0,0,0,.02136.14849.20643.20643,0,0,0,.07775.089,1.75156,1.75156,0,0,0,.31953.09458l.11377.03108a.11.11,0,0,1,.02268.07424.531.531,0,0,1-.10732.01384c-.16819,0-.28734,0-.35513-.00561-.03714,0-.06583-.0026-.08767-.0026l-.38383.00521-.375-.00261c-.017,0-.10125.00261-.2556.00778l-.055-.01038-.00561-.028a.08458.08458,0,0,1,.03776-.05871m1.04641-1.845c.05035.00171.08724.00389.11227.00389a2.4392,2.4392,0,0,0,.46849-.04921.70321.70321,0,0,0,.302-.12092.60413.60413,0,0,0,.19259-.24482.76614.76614,0,0,0,.07835-.33589.821.821,0,0,0-.12133-.4076.71916.71916,0,0,0-.3137-.27206,1.18071,1.18071,0,0,0-.53239-.10833,1.812,1.812,0,0,0-.19644.00821c-.00951.09715-.013.1727-.013.22324l.01466.52678-.00173.21719c0,.14679.00279.33116.01013.55957m4.049-1.68924a.25605.25605,0,0,1,.01357.07468.22739.22739,0,0,1-.00817.04837.39774.39774,0,0,1-.119.01985.429.429,0,0,1-.0665-.00473c-.02979,0-.05588-.00172-.07423-.00172a.38242.38242,0,0,0-.20428.04877.13349.13349,0,0,0-.063.08334L14.709,81.563l.0084,1.39637a5.45945,5.45945,0,0,0,.05032.95552.71755.71755,0,0,0,.16152.30832.80444.80444,0,0,0,.33978.20122,1.31269,1.31269,0,0,0,.44131.0794,1.56639,1.56639,0,0,0,.73467-.139.811.811,0,0,0,.36658-.38041,1.88022,1.88022,0,0,0,.11054-.74179c0-.01-.00283-.08464-.008-.2267v-.0803c0-.0298.0011-.089.00518-.177.00411-.08635.00734-.13862.00734-.15286l-.04276-.81177a2.61937,2.61937,0,0,0-.0477-.481.22158.22158,0,0,0-.07791-.11009,1.14,1.14,0,0,0-.41756-.14073.44673.44673,0,0,1-.01618-.08291c.073-.00606.14639-.01084.2185-.01084a2.29353,2.29353,0,0,1,.2366.01084c.12265.00734.19087.01207.20228.01207l.44669-.01207h.08768l-.005.10231a.97946.97946,0,0,0-.41366.10493.302.302,0,0,0-.06778.22452c0,.0596.00411.18525.01251.38l.0175.58464-.00172.23142.00778.29363a5.94832,5.94832,0,0,1-.03108.75474,1.49532,1.49532,0,0,1-.12805.44214.898.898,0,0,1-.23986.29316,1.18452,1.18452,0,0,1-.42357.21629,1.66541,1.66541,0,0,1-.51875.08768,2.22172,2.22172,0,0,1-.58164-.05655,1.48618,1.48618,0,0,1-.51421-.25782.92589.92589,0,0,1-.26644-.31648,1.50513,1.50513,0,0,1-.09953-.61052V83.2564L14.25485,82.47l.008-.63686v-.4309a.43632.43632,0,0,0-.04381-.22841.10611.10611,0,0,0-.09068-.04665l-.16753.003a.46055.46055,0,0,1-.23487-.03888.12068.12068,0,0,1-.01123-.04364.054.054,0,0,1,.01942-.04232.14526.14526,0,0,1,.07666-.019h.07056l.18953-.00333h.4482Zm2.56824.02286a.58675.58675,0,0,1,.06667-.0069c.06327,0,.16775.00217.31348.01.079.00217.13106.00217.16086.00217.03948,0,.12544-.00217.2595-.01l.481-.02806c.12589-.01251.27094-.01857.43892-.01857a1.70113,1.70113,0,0,1,.70593.12565.88152.88152,0,0,1,.404.392,1.13859,1.13859,0,0,1,.14206.535,1.06371,1.06371,0,0,1-.30893.76125,1.108,1.108,0,0,1-.83552.3221.74624.74624,0,0,1-.47061-.14334.1418.1418,0,0,1-.06565-.07776.07718.07718,0,0,1,.03109-.02851.20644.20644,0,0,1,.081.01818.71.71,0,0,0,.24348.03235.83776.83776,0,0,0,.421-.10925.71786.71786,0,0,0,.30074-.31087.95822.95822,0,0,0,.10125-.42748.925.925,0,0,0-.10625-.42746.91264.91264,0,0,0-.28236-.33161.8727.8727,0,0,0-.30143-.11872,1.58133,1.58133,0,0,0-.31605-.04666.98269.98269,0,0,0-.41451.04877l-.00412.04147.01035.31649-.00323.05828c-.003.0501-.00712.127-.00712.23146,0,.38471.00712.62346.01813.71676v.15931l.03608,1.28595c0,.019-.00239.05487-.00716.10664-.00345.04837-.0058.09413-.0058.13084a.73667.73667,0,0,0,.02114.20467c.04532.01429.179.04493.39575.09369.1.02591.15762.04019.16624.04408a.08423.08423,0,0,1,.03971.0358.09007.09007,0,0,1-.03.05443.16159.16159,0,0,1-.07233.013c-.02136,0-.07579-.00606-.15758-.013a3.34989,3.34989,0,0,0-.38087-.02592l-.4948.01857-.29792-.00866c-.01773,0-.07127.00305-.16324.00516l-.00278-.07167.36808-.07251a.23867.23867,0,0,0,.10926-.0488.30577.30577,0,0,0,.028-.15414c0-.01812.00173-.05442.00191-.11142.00305-.041.00305-.09413.00305-.16362q0-.33286-.0274-1.41668c-.00845-.33895-.01168-.68178-.01168-1.03109v-.04966a.34973.34973,0,0,0-.06283-.25388,1.1051,1.1051,0,0,0-.52138-.15156.2045.2045,0,0,1-.01251-.05182.12732.12732,0,0,1,.01534-.05442m3.39055,1.79621a1.7535,1.7535,0,0,1,.06755-.51165,2.23894,2.23894,0,0,1,.23318-.48664,1.62667,1.62667,0,0,1,.39452-.43695,2.18338,2.18338,0,0,1,.641-.31132,2.37271,2.37271,0,0,1,.72755-.095,2.20746,2.20746,0,0,1,.57859.07945,2.03388,2.03388,0,0,1,.5151.22152,1.78479,1.78479,0,0,1,.464.43437,1.48059,1.48059,0,0,1,.24052.43526,1.8931,1.8931,0,0,1,.10643.63558,2.3101,2.3101,0,0,1-.06951.617,1.71312,1.71312,0,0,1-.24089.484,2.15675,2.15675,0,0,1-.45575.4292,1.732,1.732,0,0,1-.53345.26256,2.2624,2.2624,0,0,1-.68679.10147,2.33547,2.33547,0,0,1-.66839-.08725,1.79464,1.79464,0,0,1-.4888-.21417,1.771,1.771,0,0,1-.40368-.37175,1.68157,1.68157,0,0,1-.31393-.54017,1.87932,1.87932,0,0,1-.10706-.64554m1.95685,1.75567a1.98213,1.98213,0,0,0,.49114-.06691,1.20523,1.20523,0,0,0,.45337-.22152,1.19214,1.19214,0,0,0,.30875-.34712,1.83725,1.83725,0,0,0,.17743-.50345,2.86719,2.86719,0,0,0,.06779-.61662,2.61469,2.61469,0,0,0-.11182-.75818,1.366,1.366,0,0,0-.285-.50908,1.339,1.339,0,0,0-.47605-.345,1.43223,1.43223,0,0,0-.59606-.12522,1.52872,1.52872,0,0,0-.50086.08548,1.32661,1.32661,0,0,0-.4035.21678,1.361,1.361,0,0,0-.29446.37043,2.17392,2.17392,0,0,0-.20446.53327,2.20291,2.20291,0,0,0-.071.51166,2.34325,2.34325,0,0,0,.071.52982,2.01269,2.01269,0,0,0,.19212.51383,1.65639,1.65639,0,0,0,.30143.38383,1.23365,1.23365,0,0,0,.40434.25737,1.25882,1.25882,0,0,0,.47583.09067" transform="translate(-0.00002 0.00001)"/>
        <path class="b7080f88-d7a9-413a-8fb2-d10ca9483f74" d="M26.9755,84.57544l.00818-.19259a.8131.8131,0,0,0,.44928-.14422.7423.7423,0,0,0,.097-.35189l.035-1.0069.04359-1.02375c.002-.0622.00411-.0993.00411-.11358a1.177,1.177,0,0,0-.0462-.46113.75568.75568,0,0,0-.36185-.12c-.05244-.01123-.09452-.02118-.12522-.02936a1.07572,1.07572,0,0,1-.0056-.117V80.9235c.06954-.00173.15267-.0069.24676-.0069l.82729.028c.01707.00306.04493.00606.07775.00866l.13083.00389a1.06993,1.06993,0,0,1,.097.149c.06883.14034.16059.3415.27546.60578l.0313.0764.43972.95812c.01234.0229.02764.05571.04882.10019.02891.06477.05765.13039.08958.19.02913.06261.06022.12912.09435.20378.03564.07255.06455.13907.09049.19477a1.415,1.415,0,0,0,.078-.149c.07684-.1718.14679-.33116.22062-.4784.12394-.25733.29359-.64765.50692-1.17578.03325-.08507.08892-.21158.16882-.38038.07647-.17357.12-.26256.12738-.27245a.16382.16382,0,0,1,.10146-.022c.01858,0,.04749-.00217.08636-.00217.0993-.00734.21807-.013.35407-.01556.19733-.00216.35535-.00689.47451-.01769.12221-.01039.18871-.01512.20339-.01512.01941,0,.04142.00216.06778.00473.00173.02591.00173.04926.00173.06177l-.00474.08463c0,.01857,0,.04448-.00216.07775a1.47716,1.47716,0,0,0-.43308.11831c-.07729.03882-.11531.085-.11531.14162v.04315l.04753.864c.00646.07774.02113.47286.0462,1.18048.00646.15719.019.35538.03754.60106.00345.02979.00562.05526.00562.07038.003.04532.01039.073.02891.08679.01857.01338.18783.0665.5078.16408.00217.032.003.05182.003.06733,0,.04148-.00084.08118-.003.11831-.0501,0-.17964-.00734-.38428-.03024a4.92146,4.92146,0,0,0-.57859-.03281c-.27285,0-.53668.00867-.79578.03281-.0328.00522-.06645.00739-.09885.00951l.00606-.19472a1.38235,1.38235,0,0,1,.30826-.07775.26037.26037,0,0,0,.1723-.07685.68693.68693,0,0,0,.03713-.29879c0-.06173-.00172-.11616-.00345-.16492-.00951-.19866-.01511-.47111-.01773-.82169l-.047-1.00006c-.00561-.14161-.013-.23961-.02029-.29187L29.90673,83.258c-.01684.03624-.04231.09281-.07556.1623-.04275.09241-.07344.15719-.08724.19-.14657.34935-.24676.61528-.304.801-.01557.04576-.03737.10834-.06823.18522l-.21784-.0056-.15153-.4318c-.0462-.11355-.12286-.28324-.23079-.5151-.06606-.13517-.11487-.24137-.15136-.32472a.42194.42194,0,0,1-.035-.07685l-.03563-.06994a.06224.06224,0,0,0-.00968-.02719l-.41929-.90675-.25671-.55267-.02525,1.33764-.01834.8679a.46207.46207,0,0,0,.08073.30613.70066.70066,0,0,0,.34718.15678l.13556.03408v.20811a3.28191,3.28191,0,0,1-.35341-.02635c-.12349-.01251-.29187-.02069-.49785-.02069-.0436,0-.2297.00818-.557.02591m5.08614,0h.05182a2.5458,2.5458,0,0,0,.3985-.03151l.11615-.022c.44214.03192.71937.04833.83809.04833a.41051.41051,0,0,0,.00561-.0665c0-.02591-.00084-.07167-.00383-.14118-.11789-.01592-.18481-.02677-.20338-.03064a.50377.50377,0,0,1-.247-.07556.1259.1259,0,0,1-.03843-.10537.72046.72046,0,0,1,.05353-.20123c.12521-.35491.20856-.576.24826-.66578l1.07862.00212.22279.55228.11226.28019a.2082.2082,0,0,1,.01424.07648.09347.09347,0,0,1-.02635.06436.72537.72537,0,0,1-.16537.05656l-.3152.0669a1.70288,1.70288,0,0,0-.00778.19043l.13949-.00516.4802-.02415c.06564-.00734.17358-.0095.31991-.0095.13518,0,.288.0095.45426.02114.16665.01255.32119.01989.46244.01989.00127-.02764.00127-.04753.00127-.06134a.85153.85153,0,0,0-.01512-.13861,1.07626,1.07626,0,0,0-.24783-.06778.30753.30753,0,0,1-.16364-.05615.37227.37227,0,0,1-.08507-.13646,3.19137,3.19137,0,0,1-.15457-.36269c-.06783-.17787-.11917-.30915-.15546-.3985-.06477-.14768-.14033-.33811-.22841-.56869-.09068-.23487-.19-.47451-.301-.72064l-.49135-1.16408-.02421-.05094h-.30822l-.67056,1.756-.57041,1.497a.526.526,0,0,1-.11487.16192.86754.86754,0,0,1-.26294.07728c-.09241.016-.15369.03109-.18954.041Zm1.3316-1.58726.40845-1.09369c.057.1196.12783.288.21979.509.09025.22458.16452.41973.22152.58942l-.07211.003c-.08029,0-.33811-.003-.77764-.00778M36.17485,84.404a.58979.58979,0,0,0-.00778.08719c0,.01251.00216.0432.00562.08982h.12136a2.67158,2.67158,0,0,0,.32639-.02031l.3886-.0263c.022,0,.05743-.00171.10625-.00171.076,0,.3156.01684.721.05394l.114-.00561c.01083,0,.03286.0026.06911.0026a1.42926,1.42926,0,0,0,.01167-.20811,2.28737,2.28737,0,0,0-.38-.10964.69659.69659,0,0,1-.20722-.07087l.01818-.53328-.013-.62825a1.72886,1.72886,0,0,1,.00774-.19255c.0894-.0039.155-.00734.19171-.00734a.53977.53977,0,0,1,.29275.05916,1.2571,1.2571,0,0,1,.19776.31348c.20168.39982.342.69.42659.87606.03069.06868.08724.174.1676.3161l.09409.18521c.0298-.00517.07256-.00818.12221-.01338.10925-.01251.17792-.02069.19692-.02069l.28323.00428a1.3754,1.3754,0,0,1,.22285.01428h.11567l.14807.01853.05659-.003h.07685c.00128-.02591.00216-.04921.00216-.06388a.23587.23587,0,0,0-.01685-.08551.91413.91413,0,0,0-.19516-.095.65294.65294,0,0,1-.21416-.11186,1.928,1.928,0,0,1-.22369-.33762l-.45033-.73449c-.04921-.0794-.11315-.17525-.1926-.28841a1.52183,1.52183,0,0,1-.09108-.13861,1.1266,1.1266,0,0,0,.57037-.35063.838.838,0,0,0,.18309-.51854.87231.87231,0,0,0-.34286-.67706,1.3651,1.3651,0,0,0-.92188-.29663,6.632,6.632,0,0,0-.69775.03633l-.35319.01552-.149.00734c-.01122,0-.08462-.00518-.22151-.0168-.13039,0-.2189.00473-.26123.00473a1.56472,1.56472,0,0,0-.25992.02246l-.01168.03153.00561.1697c.04922.00774.15241.01768.30271.028l.168.0337c.00951.10707.0138.35969.0138.75129,0,.18-.00173.36962-.00734.57642l-.00646.15245.00646.26379-.01123.3381.00305.63a2.28789,2.28789,0,0,1-.00822.27246.64123.64123,0,0,1-.01424.08245,1.31771,1.31771,0,0,1-.2621.06176.629.629,0,0,0-.21763.05743M37.449,82.57281v-.07865c.00085-.13816.00255-.24954.00774-.33416l-.00212-.30875.00734-.2323-.00525-.38041.00522-.05443a1.38135,1.38135,0,0,1,.22319-.01551,1.463,1.463,0,0,1,.39771.041.6752.6752,0,0,1,.27285.16841.58247.58247,0,0,1,.12265.23319,1.0895,1.0895,0,0,1,.04877.33505.57412.57412,0,0,1-.19906.46028,1.05066,1.05066,0,0,1-.68179.17186c-.04359,0-.10706-.00305-.19728-.0056m2.75863,2.0056c.03669-.003.11877-.00821.24053-.02073.19127-.0177.3359-.028.43693-.028l.49829.00478c.225.0233.34974.03581.37693.041a.57441.57441,0,0,0,.07341.00818c.00866,0,.04364,0,.10279-.00516a.30534.30534,0,0,1,.057-.003c.00217-.04274.003-.07774.003-.09761,0-.03409-.00473-.08246-.01034-.13856-.09975-.01556-.1563-.022-.171-.02334-.09629-.0108-.199-.02891-.31392-.05139a.20337.20337,0,0,1-.01593-.06478l.00645-.10749-.00777-.56607.01213-.37822-.00429-.74652c0-.17016.00433-.41624.00951-.73317-.00517-.05227-.00951-.11876-.00951-.19777a1.03215,1.03215,0,0,1,.01772-.215,2.15108,2.15108,0,0,1,.23921-.07128,2.6634,2.6634,0,0,0,.25689-.07468,1.22587,1.22587,0,0,0,.00865-.123c0-.02591-.00176-.05871-.00389-.08941-.03632,0-.12394.00605-.25994.01424-.24442.01512-.42357.02335-.53328.02335-.02591,0-.08719-.00216-.18827-.00689l-.80654-.0307.00733.24654a.68329.68329,0,0,0,.09675.01039,1.04729,1.04729,0,0,1,.37608.0665.64047.64047,0,0,1,.01853.08936l.00561.12348.01513.31782-.00777.15541.00561.37654c0,.01033-.00862.2025-.022.5764l.00217.15158-.00689.64721.00474.33075a.49888.49888,0,0,1-.05182.24437,1.15058,1.15058,0,0,1-.27284.0924c-.08723.02075-.14856.03669-.18527.04966Zm4.44824-3.5794a2.85641,2.85641,0,0,0-.42619-.11831,2.626,2.626,0,0,0-.39984-.04966,1.31553,1.31553,0,0,0-.95163.31432,1.03746,1.03746,0,0,0-.32126.76514,1.07422,1.07422,0,0,0,.11487.465.98521.98521,0,0,0,.31733.386,3.18758,3.18758,0,0,0,.72065.32859,2.1789,2.1789,0,0,1,.63687.29448.49118.49118,0,0,1,.09984.68743h0l-.01344.0172a.60909.60909,0,0,1-.29708.21372.99375.99375,0,0,1-.33593.06478.90414.90414,0,0,1-.31864-.05181.87232.87232,0,0,1-.25173-.14119.94859.94859,0,0,1-.19346-.23448,4.19182,4.19182,0,0,1-.174-.38173l-.26382.00734v.10578c0,.05266.00133.13946.00521.2604.01079.23961.01552.36785.01552.38816v.03279a.09246.09246,0,0,0,.02463.05227.513.513,0,0,0,.177.06994l.34023.10019a2.46727,2.46727,0,0,0,.47152.05741,1.98156,1.98156,0,0,0,.491-.05182,1.33344,1.33344,0,0,0,.37-.16492,1.64758,1.64758,0,0,0,.2625-.20034.73266.73266,0,0,0,.1723-.25777,1.4326,1.4326,0,0,0,.09842-.52288,1.1737,1.1737,0,0,0-.06216-.40545,1.06355,1.06355,0,0,0-.234-.33811,1.17558,1.17558,0,0,0-.37265-.2461,3.01594,3.01594,0,0,0-.41663-.16235,1.6271,1.6271,0,0,1-.67405-.3191.49681.49681,0,0,1-.15805-.348.4619.4619,0,0,1,.16019-.36052.63554.63554,0,0,1,.44043-.14594.67418.67418,0,0,1,.50646.22669,1.407,1.407,0,0,1,.247.50647l.03626.00473.2021.01384.02892-.00733a.73836.73836,0,0,0,.01033-.10833,4.30855,4.30855,0,0,0-.03236-.456,1.92077,1.92077,0,0,0-.05265-.29052m.86962-.23834c-.01512.03453-.03542.10925-.06611.2185a5.95256,5.95256,0,0,1-.2422.73272.65808.65808,0,0,0,.1671.11054c.02161,0,.057-.03153.10319-.09069a1.69056,1.69056,0,0,1,.36442-.38644.88213.88213,0,0,1,.35624-.0501c.323,0,.51208.00474.5708.013a.0604.0604,0,0,1,.03975.01593.082.082,0,0,1,.02158.038,4.97792,4.97792,0,0,1,.01511.53238l.01512,1.07039c0,.49134-.00693.85405-.0199,1.07856a.38965.38965,0,0,1-.03365.14122,2.06131,2.06131,0,0,1-.40761.12912.39724.39724,0,0,0-.2349.12043v.02291l.003.06475.00691.06473c.03108,0,.10019-.003.20767-.01117.2755-.02163.4413-.03154.49742-.03154.35623,0,.60278.00389.73833.01985.136.01169.30053.01984.49441.01984.0272,0,.06044,0,.10235-.0026a.46913.46913,0,0,0,.0099-.0738c0-.01465-.00562-.05487-.01466-.12437-.04531-.01512-.09457-.0298-.15156-.04358-.12521-.03154-.19517-.04322-.2103-.04576a.76748.76748,0,0,1-.1662-.03714.907.907,0,0,1-.03542-.29235l.00261-.36915-.00911-.89684V81.8655l-.00382-.37777a1.43192,1.43192,0,0,1,.01593-.17964c.07946-.00822.14466-.013.19778-.013a5.91346,5.91346,0,0,1,.60189.01466.15534.15534,0,0,1,.07858.0488,1.221,1.221,0,0,1,.10881.2327,2.08261,2.08261,0,0,0,.15975.3191.97262.97262,0,0,0,.20383-.04794.56467.56467,0,0,0,.01163-.12478l.00388-.14421-.00388-.25261c0-.26294-.00128-.45726-.00383-.58766-.03632-.00084-.06392-.00389-.08334-.00389l-.12521.00389c-.01428.032-.02247.0548-.03069.07038a.32758.32758,0,0,1-.07941.13946l-.1658.02334H47.662l-.63819-.00172-.34285.00172-.05736.00473c-.11315.00173-.24181.00173-.38776.00173-.23186,0-.36185-.00173-.38688-.00646a1.17255,1.17255,0,0,1-.12088-.18137c-.0065-.00995-.01428-.02462-.02808-.04448ZM48.699,84.57546h.04971a2.55784,2.55784,0,0,0,.39983-.03151l.11616-.022c.44042.03193.7202.04833.8368.04833a.3364.3364,0,0,0,.006-.06649c0-.02591-.00173-.07167-.00254-.14119-.11615-.01592-.18527-.02677-.20123-.03064a.50643.50643,0,0,1-.25045-.07556.12835.12835,0,0,1-.0376-.10536.76016.76016,0,0,1,.05271-.20123c.12693-.35491.209-.576.2487-.66578l1.0799.00212.22063.55228.11225.28019a.21657.21657,0,0,1,.01424.07647.08241.08241,0,0,1-.02846.06436.6038.6038,0,0,1-.16192.05655l-.3152.06692c-.00478.06088-.00868.12437-.00868.19042l.139-.00515.4797-.02421c.06692-.00734.1753-.00951.323-.00951.13427,0,.28456.00951.45336.02114.168.01255.31992.01989.46117.01989.00127-.02763.00217-.04753.00217-.06133a1.07236,1.07236,0,0,0-.01428-.13861,1.0959,1.0959,0,0,0-.24911-.06778.31437.31437,0,0,1-.165-.05615.374.374,0,0,1-.08291-.13646,3.168,3.168,0,0,1-.15585-.3627c-.06739-.17788-.11832-.30916-.155-.3985-.0635-.14769-.14034-.33811-.22885-.56869-.089-.23487-.18871-.47451-.30137-.72064l-.49006-1.1641-.02507-.05094H50.5133l-.66883,1.75608-.5708,1.497a.53492.53492,0,0,1-.11527.16191.88706.88706,0,0,1-.26339.07729c-.092.016-.15374.0311-.19043.041Zm1.329-1.58725.40973-1.09369c.057.11959.1291.288.22107.509.0898.22457.16453.41972.22151.58942l-.07211.003c-.07818,0-.339-.003-.78021-.00778" transform="translate(-0.00002 0.00001)"/>
      </g>
      <rect class="b7080f88-d7a9-413a-8fb2-d10ca9483f74" x="5.88142" y="76.95536" width="46.87164" height="0.269"/>
    </g>
    <g>
      <path class="b7080f88-d7a9-413a-8fb2-d10ca9483f74" d="M29.31356,9.02153c.267.18521,2.34376,1.53483,3.99351-.06951a.1214.1214,0,0,0,.00112-.17167h0l-.00371-.0036a20.05093,20.05093,0,0,0-3.03163-2.33729.05084.05084,0,0,1-.02435-.04334V4.23045a.05119.05119,0,0,1,.05119-.05119h1.67266a.12309.12309,0,0,0,.12309-.12309h0v-1.681a.12311.12311,0,0,0-.12311-.12311h-1.6726a.05121.05121,0,0,1-.0512-.0512V.12308A.12309.12309,0,0,0,30.12543,0h-1.681a.12309.12309,0,0,0-.12309.12309h0V2.20085a.05119.05119,0,0,1-.05119.05119H26.59754a.12313.12313,0,0,0-.12311.1231h0v1.681a.1231.1231,0,0,0,.12309.12308h1.6726a.0512.0512,0,0,1,.0512.05117V6.39613a.05085.05085,0,0,1-.02433.04334,20.05088,20.05088,0,0,0-3.03116,2.33679.12208.12208,0,0,0-.00627.17253h0l.0035.00361c1.6497,1.60378,3.72613.25434,3.99314.06915A.05.05,0,0,1,29.31356,9.02153Z" transform="translate(-0.00002 0.00001)"/>
      <path class="b7080f88-d7a9-413a-8fb2-d10ca9483f74" d="M29.30956,13.718c.33585.18541,4.02558,2.13538,6.77114-.11247a.12246.12246,0,0,0,.034-.14466,17.3103,17.3103,0,0,0-1.244-2.247.12452.12452,0,0,0-.10387-.05648H23.803a.1246.1246,0,0,0-.10388.05647,17.31034,17.31034,0,0,0-1.244,2.24706.12244.12244,0,0,0,.034.14466c2.74556,2.24784,6.4353.29788,6.7711.11247A.05081.05081,0,0,1,29.30956,13.718Z" transform="translate(-0.00002 0.00001)"/>
    </g>
    <g>
      <path class="b7080f88-d7a9-413a-8fb2-d10ca9483f74" d="M34.4539,33.31117,29.96568,35.935a.11825.11825,0,0,1-.17794-.10209V30.95019a.11822.11822,0,0,1,.05857-.10209l4.48821-2.62388a.11826.11826,0,0,1,.178.10209v4.88281A.11827.11827,0,0,1,34.4539,33.31117Z" transform="translate(-0.00002 0.00001)"/>
      <path class="b7080f88-d7a9-413a-8fb2-d10ca9483f74" d="M24.11585,33.31117,28.60408,35.935A.11825.11825,0,0,0,28.782,35.833V30.95019a.11826.11826,0,0,0-.05858-.10209l-4.48822-2.62392a.11826.11826,0,0,0-.17794.10209v4.88285A.11823.11823,0,0,0,24.11585,33.31117Z" transform="translate(-0.00002 0.00001)"/>
      <path class="b7080f88-d7a9-413a-8fb2-d10ca9483f74" d="M37.9997,41.84889,29.9657,46.544a.11826.11826,0,0,1-.17792-.10209v-9.3297a.11824.11824,0,0,1,.05859-.1021l8.034-4.6951a.11825.11825,0,0,1,.17793.1021v9.32966A.11824.11824,0,0,1,37.9997,41.84889Z" transform="translate(-0.00002 0.00001)"/>
      <path class="b7080f88-d7a9-413a-8fb2-d10ca9483f74" d="M20.57007,41.84889l8.034,4.69513a.11825.11825,0,0,0,.17792-.10209v-9.3297a.11826.11826,0,0,0-.05858-.1021l-8.034-4.69514a.11825.11825,0,0,0-.17793.1021v9.32965A.11829.11829,0,0,0,20.57007,41.84889Z" transform="translate(-0.00002 0.00001)"/>
    </g>
    <path class="b7080f88-d7a9-413a-8fb2-d10ca9483f74" d="M21.67885,16.16553a.10189.10189,0,0,1-.09722-.07282,2.73333,2.73333,0,0,0-1.05967-1.447l-6.27728-4.34908a2.257,2.257,0,0,0-3.14059.56988l-.586.84578-2.462-1.5619a.10237.10237,0,0,0-.14124.0316l-.98738,1.55624a.10237.10237,0,0,0,.03158.14128h0L9.3509,13.39694,3.99823,21.1228a.10237.10237,0,0,0,.02584.14245h0l6.10972,4.233a.10234.10234,0,0,0,.14243-.0258l6.70451-9.6614a1.95079,1.95079,0,0,1,2.6574-.25264,2.07068,2.07068,0,0,1,.80458,2.29247.10311.10311,0,0,1-.1538.05888l-2.255-1.43054a.10237.10237,0,0,0-.13892.02808l-1.05214,1.51618a.10237.10237,0,0,0,.02573.14247h0l.00352.00233,8.36469,5.30659a.05119.05119,0,0,1-.0274.09441H16.49006a.10239.10239,0,0,0-.10239.10239h0v8.10255a.0512.0512,0,0,1-.02377.04323l-5.8283,3.69714a.05119.05119,0,0,1-.07542-.06081,4.21,4.21,0,1,0-7.41413,1.05456.04982.04982,0,0,1-.01113.06957l-.01573.00761a4.20981,4.20981,0,1,0,4.27633,6.90253.0501.0501,0,0,1,.07075-.00333h0l.01064.01378a4.2098,4.2098,0,1,0,4.27765-6.16523.051.051,0,0,1-.0214-.09369L16.309,34.2735a.05119.05119,0,0,1,.07861.04323v5.30679a12.89759,12.89759,0,1,0,25.79368.27891h0q.00075-.06945.00075-.13893V34.3167a.0512.0512,0,0,1,.07862-.04324l4.67586,2.96605a.051.051,0,0,1-.0214.09368,4.21008,4.21008,0,1,0,4.27752,6.1654.0502.0502,0,0,1,.06777-.02114h0l.01379.01066a4.2097,4.2097,0,1,0,4.27616-6.90262.04972.04972,0,0,1-.03444-.06129l.00763-.01575a4.20964,4.20964,0,1,0-7.4139-1.05422.051.051,0,0,1-.0752.06063l-5.82865-3.69733a.0512.0512,0,0,1-.02377-.04323V23.67165a.10238.10238,0,0,0-.10238-.10238H33.36039a.0512.0512,0,0,1-.02741-.09442l8.36468-5.30656a.10238.10238,0,0,0,.03162-.14129h0l-.00234-.00353-1.05215-1.51609a.10238.10238,0,0,0-.13893-.02809l-2.255,1.43053a.10311.10311,0,0,1-.15383-.05888,2.0707,2.0707,0,0,1,.80461-2.29243,1.95072,1.95072,0,0,1,2.65735.25267l6.70454,9.66124a.10234.10234,0,0,0,.14242.02581h0l6.10971-4.233a.10232.10232,0,0,0,.02585-.14238v0h0l-5.32235-7.68209a.0512.0512,0,0,1,.01293-.07124h0l.00172-.00114,2.34686-1.48886a.10237.10237,0,0,0,.0316-.14128h0L50.65491,10.182a.10243.10243,0,0,0-.14134-.03161h0l-2.42039,1.53556a.05117.05117,0,0,1-.06951-.01407l-.558-.80537a2.257,2.257,0,0,0-3.14059-.56988l-6.27723,4.34906a2.73356,2.73356,0,0,0-1.05972,1.447.10185.10185,0,0,1-.09721.07281Zm23.44156,1.96,1.18835-.82332a.0512.0512,0,0,0,.01292-.07124l-.96077-1.38666-.11152-.161a.10239.10239,0,0,1,.02585-.14247h0l1.05834-.73324a.10239.10239,0,0,1,.14247.02585h0l.146.21078.92627,1.33692a.0512.0512,0,0,0,.07122.01293h0l1.18836-.82337a.1024.1024,0,0,1,.14247.02584h0l.73324,1.05837a.1024.1024,0,0,1-.02585.14247l-1.18833.82336a.05119.05119,0,0,0-.01293.07123h0l1.49632,2.15959a.10239.10239,0,0,1-.02585.14247h0l-1.05837.73326a.10238.10238,0,0,1-.14246-.02585h0l-1.49626-2.15958a.05119.05119,0,0,0-.07121-.01291l-1.18838.82336a.10239.10239,0,0,1-.14246-.02584h0l-.73325-1.05837a.10239.10239,0,0,1,.02583-.14248h0Zm-31.6452.1425-.73326,1.05837a.10238.10238,0,0,1-.14246.02586h0l-1.18837-.82336a.05119.05119,0,0,0-.07123.01291h0l-1.49627,2.1596a.10242.10242,0,0,1-.14251.02586L8.64277,19.994a.1024.1024,0,0,1-.02585-.14249h0L10.11318,17.692a.05119.05119,0,0,0-.01293-.07123h0l-1.18841-.8233A.10237.10237,0,0,1,8.886,16.655h0l.73331-1.05838a.1024.1024,0,0,1,.14248-.02585l1.18836.82337a.05119.05119,0,0,0,.07123-.01292h0l.92623-1.33693.14608-.2108a.1024.1024,0,0,1,.14248-.02585l1.05835.73325a.10241.10241,0,0,1,.02586.1425l-.11152.161-.96076,1.38667a.0512.0512,0,0,0,.01291.07125h0l1.18836.82332a.10239.10239,0,0,1,.02586.1424ZM4.41585,43.13042a2.51583,2.51583,0,1,1,2.3034-2.3034A2.51583,2.51583,0,0,1,4.41585,43.13042ZM6.6861,36.584a2.51589,2.51589,0,1,1,2.3034-2.30333A2.51585,2.51585,0,0,1,6.6861,36.584Zm6.90575,4.71663a2.51581,2.51581,0,1,1-2.30339-2.3034A2.51581,2.51581,0,0,1,13.59185,41.30062ZM23.1446,19.60376a7.11931,7.11931,0,0,0,6.11119-.89939.04958.04958,0,0,1,.05821,0,7.11923,7.11923,0,0,0,6.11111.89938.05086.05086,0,0,1,.04339.0912L29.42615,23.5282a.26383.26383,0,0,1-.14131.041h0a.26369.26369,0,0,1-.14132-.041L23.10119,19.695a.05086.05086,0,0,1,.04339-.0912Zm17.50246,20.159a11.3625,11.3625,0,0,1-22.725.00281v-.00394h0q0-.06111.00063-.12224V25.20669a.10239.10239,0,0,1,.10239-.10238H40.54465a.10238.10238,0,0,1,.10238.10238Zm7.04252,4.24953A2.51582,2.51582,0,1,1,49.993,41.70891a2.51582,2.51582,0,0,1-2.30339,2.30339Zm1.89067-9.73172a2.51582,2.51582,0,1,1,2.3034,2.30341,2.51583,2.51583,0,0,1-2.3034-2.30341Zm4.982,8.84986a2.51583,2.51583,0,1,1,2.3034-2.3034A2.51582,2.51582,0,0,1,54.56225,43.13044Z" transform="translate(-0.00002 0.00001)"/>
  </g>
</svg>
